<?xml version="1.0" encoding="UTF-8" standalone="no"?>
<svg
   height="24px"
   viewBox="0 -960 960 960"
   width="24px"
   fill="#fff"
   version="1.1"
   id="svg1"
   sodipodi:docname="Gite.svg"
   xml:space="preserve"
   inkscape:export-filename="../group.png"
   inkscape:export-xdpi="400"
   inkscape:export-ydpi="400"
   inkscape:version="1.4.2 (ebf0e940d0, 2025-05-08)"
   xmlns:inkscape="http://www.inkscape.org/namespaces/inkscape"
   xmlns:sodipodi="http://sodipodi.sourceforge.net/DTD/sodipodi-0.dtd"
   xmlns="http://www.w3.org/2000/svg"
   xmlns:svg="http://www.w3.org/2000/svg"><defs
     id="defs1" /><sodipodi:namedview
     id="namedview1"
     pagecolor="#505050"
     bordercolor="#eeeeee"
     borderopacity="1"
     inkscape:showpageshadow="0"
     inkscape:pageopacity="0"
     inkscape:pagecheckerboard="0"
     inkscape:deskcolor="#505050"
     inkscape:zoom="13.340235"
     inkscape:cx="0.3373254"
     inkscape:cy="8.6580185"
     inkscape:window-width="1078"
     inkscape:window-height="1058"
     inkscape:window-x="0"
     inkscape:window-y="0"
     inkscape:window-maximized="0"
     inkscape:current-layer="svg1" /><g
     id="g21"
     transform="translate(8.120435,15.580716)"><path
       d="m 531.18766,-330.0186 q -9.22857,0 -15.47143,-6.24286 -6.24286,-6.24286 -6.24286,-15.47143 0,-9.22857 6.24286,-15.47143 6.24286,-6.24286 15.47143,-6.24286 h 65.14287 q 17.91428,0 30.67143,12.75715 12.75714,12.75714 12.75714,30.67143 z m 43.42858,195.42859 q 27.14286,0 46.14286,-19 19,-19 19,-46.14286 0,-27.14286 -19,-46.14286 -19,-19.00001 -46.14286,-19.00001 -27.14286,0 -46.14286,19.00001 -19.00001,19 -19.00001,46.14286 0,27.14286 19.00001,46.14286 19,19 46.14286,19 z m 293.14289,0 q 13.57143,0 23.07143,-9.5 9.5,-9.5 9.5,-23.07143 0,-13.57143 -9.5,-23.07143 -9.5,-9.5 -23.07143,-9.5 -13.57143,0 -23.07143,9.5 -9.50001,9.5 -9.50001,23.07143 0,13.57143 9.50001,23.07143 9.5,9.5 23.07143,9.5 z m -293.14289,-32.57143 q -13.57143,0 -23.07143,-9.5 -9.5,-9.5 -9.5,-23.07143 0,-13.57143 9.5,-23.07143 9.5,-9.5 23.07143,-9.5 13.57143,0 23.07143,9.5 9.5,9.5 9.5,23.07143 0,13.57143 -9.5,23.07143 -9.5,9.5 -23.07143,9.5 z m 304.00003,-75.45715 q 14.11429,2.71428 23.34286,7.32857 9.22857,4.61429 20.08572,14.92857 v -131.37144 q 0,-17.91429 -12.75715,-30.67143 -12.75714,-12.75714 -30.67143,-12.75714 H 741.81626 l -22.80001,-23.88572 30.40001,-30.4 -15.20001,-15.20001 -77.08572,77.08573 16.28572,15.2 30.4,-30.40001 22.8,22.80001 v 49.94286 q 0,17.91429 -12.75714,30.67143 -12.75714,12.75715 -30.67143,12.75715 h -43.97144 q 12.48572,9.22857 20.08572,19 7.6,9.77143 15.2,24.42857 h 8.68572 q 35.82857,0 61.34286,-25.51429 25.51429,-25.51429 25.51429,-61.34286 v -21.71429 h 108.57144 z m -86.31429,64.60001 q 3.25714,-14.65715 7.87142,-23.61429 4.61429,-8.95715 14.38572,-19.81429 H 681.01625 q 2.17143,12.48571 2.17143,21.71429 0,9.22857 -2.17143,21.71429 z m 75.45715,86.857147 q -31.48572,0 -53.74287,-22.257147 -22.25714,-22.25714 -22.25714,-53.74286 0,-31.48572 22.25714,-53.74286 22.25715,-22.25715 53.74287,-22.25715 31.48571,0 53.74286,22.25715 22.25714,22.25714 22.25714,53.74286 0,31.48572 -22.25714,53.74286 -22.25715,22.257147 -53.74286,22.257147 z m -293.14289,0 q -45.05715,0 -76.8143,-31.757147 -31.75714,-31.75715 -31.75714,-76.81429 0,-45.05715 31.75714,-76.8143 31.75715,-31.75714 76.8143,-31.75714 45.05715,0 76.81429,31.75714 31.75715,31.75715 31.75715,76.8143 0,45.05714 -31.75715,76.81429 -31.75714,31.757147 -76.81429,31.757147 z M 787.95912,-286.59002 Z"
       id="path1-5"
       style="fill:#ffffff;stroke-width:0.542857" /><path
       d="m 200,-900 v 80 H 160 L 0,-660 v 360 h 480 c 5.3804,-5.07899 11.03297,-9.65317 17.03125,-13.75 -0.68303,-0.60269 -1.3927,-1.15832 -2.03125,-1.79687 -9.25806,-9.25806 -14.76563,-23.42344 -14.76563,-36.17188 10e-6,-12.74844 5.50757,-26.91382 14.76563,-36.17187 9.25806,-9.25806 23.42343,-14.84376 36.17187,-14.84375 H 560 v -224.29688 l 80,-80 80,80 v 136.79688 a 29.255039,29.255039 0 0 1 9.60937,-3.28125 29.255039,29.255039 0 0 1 25.3125,8.20312 l 15.15625,15.15625 a 29.255039,29.255039 0 0 1 0,41.40625 l -4.29687,4.375 H 800 V -660 L 640,-820 H 280 v -80 z M 80,-580 h 400 v 200 H 80 Z"
       id="path12" /></g></svg>
