<?xml version="1.0" encoding="UTF-8" standalone="no"?>
<svg
   height="24px"
   viewBox="0 -960 960 960"
   width="24px"
   fill="#fff"
   version="1.1"
   id="svg1"
   sodipodi:docname="milk.svg"
   inkscape:export-filename="package.png"
   inkscape:export-xdpi="400"
   inkscape:export-ydpi="400"
   inkscape:version="1.4.2 (ebf0e940d0, 2025-05-08)"
   xmlns:inkscape="http://www.inkscape.org/namespaces/inkscape"
   xmlns:sodipodi="http://sodipodi.sourceforge.net/DTD/sodipodi-0.dtd"
   xmlns="http://www.w3.org/2000/svg"
   xmlns:svg="http://www.w3.org/2000/svg">
  <defs
     id="defs1" />
  <sodipodi:namedview
     id="namedview1"
     pagecolor="#505050"
     bordercolor="#eeeeee"
     borderopacity="1"
     inkscape:showpageshadow="0"
     inkscape:pageopacity="0"
     inkscape:pagecheckerboard="0"
     inkscape:deskcolor="#505050"
     inkscape:zoom="13.062716"
     inkscape:cx="13.282077"
     inkscape:cy="10.755803"
     inkscape:window-width="1078"
     inkscape:window-height="1058"
     inkscape:window-x="0"
     inkscape:window-y="0"
     inkscape:window-maximized="0"
     inkscape:current-layer="svg1" />
  <path
     d="m 348.79521,-86.385619 c -24.05421,0 -44.64607,-8.564754 -61.77559,-25.694271 -17.12952,-17.12952 -25.69428,-37.72138 -25.69428,-61.77559 v -332.38548 c 0,-5.83132 0.54669,-11.66265 1.64006,-17.49397 1.09338,-5.83132 2.73343,-11.66265 4.92018,-17.49398 l 87.46987,-201.18067 h -6.56024 c -12.39157,0 -22.77861,-4.19127 -31.16114,-12.5738 -8.38253,-8.38253 -12.5738,-18.76958 -12.5738,-31.16114 v -43.73493 c 0,-12.39156 4.19127,-22.7786 12.5738,-31.16114 8.38253,-8.38253 18.76957,-12.57379 31.16114,-12.57379 h 306.14452 c 12.39156,0 22.7786,4.19126 31.16113,12.57379 8.38254,8.38254 12.5738,18.76958 12.5738,31.16114 v 43.73493 c 0,12.39156 -4.19126,22.77861 -12.5738,31.16114 -8.38253,8.38253 -18.76957,12.5738 -31.16113,12.5738 h -6.56024 -94.0301 -104.96384 l -100.59034,236.16862 v 332.38548 h 159.35915 c 0,18.54989 0,28.66349 0,43.90106 0,16.17633 0,27.50044 0,43.568801 z"
     id="path1"
     sodipodi:nodetypes="sssssccssssssssssssccccccscs"
     style="stroke-width:1.09337" />
  <path
     d="m 611.20479,-86.385619 c 24.05421,0 44.64607,-8.564754 61.77559,-25.694271 17.12952,-17.12952 25.69428,-37.72138 25.69428,-61.77559 v -332.38548 c 0,-5.83132 -0.54669,-11.66265 -1.64006,-17.49397 -1.09338,-5.83132 -2.73343,-11.66265 -4.92018,-17.49398 l -87.46987,-201.18067 h 6.56024 c 12.39157,0 22.77861,-4.19127 31.16114,-12.5738 8.38253,-8.38253 12.5738,-18.76958 12.5738,-31.16114 v -43.73493 c 0,-12.39156 -4.19127,-22.7786 -12.5738,-31.16114 -8.38253,-8.38253 -18.76957,-12.57379 -31.16114,-12.57379 H 305.06027 c -12.39156,0 -22.7786,4.19126 -31.16113,12.57379 -8.38254,8.38254 -12.5738,18.76958 -12.5738,31.16114 v 43.73493 c 0,12.39156 4.19126,22.77861 12.5738,31.16114 8.38253,8.38253 18.76957,12.5738 31.16113,12.5738 h 6.56024 94.0301 104.96384 l 100.59034,236.16862 v 332.38548 H 451.84564 c 0,18.54989 0,28.66349 0,43.90106 0,16.17633 0,27.50044 0,43.568801 z"
     id="path3"
     sodipodi:nodetypes="sssssccssssssssssssccccccscs"
     style="stroke-width:1.09337" />
</svg>
